<svg xmlns="http://www.w3.org/2000/svg" viewBox="0 0 67.733 67.733"><path fill="red" d="M17.212 5.02C11.66 14.634 6.108 24.25.557 33.866l16.655 28.847h33.31l16.655-28.847L50.522 5.019zm24.253 7.674L54.498 29.73 48.801 49.26l-1.926.596V38.379c0-4.122-.798-7.262-2.395-9.423-1.58-2.16-3.905-3.241-6.972-3.241-1.74 0-3.328.427-4.767 1.28-1.438.835-2.798 2.143-4.079 3.922V15.033l12.803-2.339zm-21.292 3.89v32.28l-9.439-11.641 9.4-20.632.04-.008zm14.181 16.484c.728 0 1.376.182 1.945.545.569.345 1.02.835 1.351 1.47.253.473.427 1.208.522 2.206.11.999.166 2.832.166 5.5v9.706l-9.676 2.992V41.946c0-2.778.506-4.947 1.518-6.508 1.012-1.58 2.404-2.37 4.174-2.37z"/></svg>